<svg xmlns="http://www.w3.org/2000/svg" viewBox="0 0 271.72 165.6"><defs><style>.cls-1,.cls-3{opacity:0.11;}.cls-2{fill:#fff;stroke:#fff;stroke-miterlimit:10;stroke-width:20px;}.cls-3{fill:#37648e;}</style></defs><title>Ativo 17</title><g id="Camada_2" data-name="Camada 2"><g id="Camada_1-2" data-name="Camada 1"><g class="cls-1"><path class="cls-2" d="M13.36,105.36s-8.15,5.25.93,10.61,64.44,37.2,64.44,37.2,9,5.47,18.43,,0-10.51-9.08-6.12-12.58-4.26-8.21-.06-11-1.64-34.46-20.13-34.46-20.13a2.37,2.37,0,0,1-.11-4c2.57-2.25,1.81-2.25-.87-3.84s-7.44-4.27-7.44-4.27-8.92-4.1-17.18.82S13.36,105.36,13.36,105.36Z"/><path class="cls-2" d="M258.36,60.24s8.15-5.25-.93-10.61S193,12.43,193,12.43s-9-5.47-18.43,0S13.79,105.31,13.79,105.31s-8.53,5.53,0,10.51,9.08,6.12,12.58,4.26,8.21.06,11,1.64,34.46,20.13,34.46,20.13a2.37,2.37,0,0,1,.11,4c-2.57,2.25-1.81,2.25.87,3.84S80.25,154,80.25,154s8.92,4.1,17.18-.82S258.36,60.24,258.36,60.24Z"/></g><path class="cls-3" d="M13.36,100.22s-8.15,5.25.93,10.61S78.73,148,78.73,148s9,5.47,18.43,0S257.93,55.14,257.93,55.14s8.53-5.52,0-10.5-9.08-6.12-12.58-4.26-8.21-.06-11-1.65S199.89,18.6,199.89,18.6a2.36,2.36,0,0,1-.11-4c2.57-2.26,1.81-2.26-.87-3.84s-7.44-4.27-7.44-4.27-8.92-4.1-17.18.82S13.36,100.22,13.36,100.22Z"/></g></g></svg>